HIERARCHY
ROOT Hips
{
	OFFSET 0.000000 0.000000 0.000000 
	CHANNELS 6 Xposition Yposition Zposition Zrotation Yrotation Xrotation
	JOINT LeftUpLeg
	{
		OFFSET 1.363060 -1.794630 0.839290 
		CHANNELS 3 Zrotation Yrotation Xrotation
		JOINT LeftLeg
		{
			OFFSET 2.448110 -6.726130 0.000000 
			CHANNELS 3 Zrotation Yrotation Xrotation
			JOINT LeftFoot
			{
				OFFSET 2.562200 -7.039590 0.000000 
				CHANNELS 3 Zrotation Yrotation Xrotation
				JOINT LeftToeBase
				{
					OFFSET 0.157640 -0.433110 2.322550 
					CHANNELS 3 Zrotation Yrotation Xrotation
					End Site
					{
						OFFSET 0.000000 0.000000 0.000000 
					}
				}
			}
		}
	}
	JOINT RightUpLeg
	{
		OFFSET -1.305520 -1.794630 0.839290 
		CHANNELS 3 Zrotation Yrotation Xrotation
		JOINT RightLeg
		{
			OFFSET -2.542530 -6.985550 0.000000 
			CHANNELS 3 Zrotation Yrotation Xrotation
			JOINT RightFoot
			{
				OFFSET -2.568260 -7.056230 0.000000 
				CHANNELS 3 Zrotation Yrotation Xrotation
				JOINT RightToeBase
				{
					OFFSET -0.164730 -0.452590 2.363150 
					CHANNELS 3 Zrotation Yrotation Xrotation
					End Site
					{
						OFFSET 0.000000 0.000000 0.000000 
					}
				}
			}
		}
	}
	JOINT Spine
	{
		OFFSET 0.028270 2.035590 -0.193380 
		CHANNELS 3 Zrotation Yrotation Xrotation
		JOINT Spine1
		{
			OFFSET 0.056720 2.048850 -0.042750 
			CHANNELS 3 Zrotation Yrotation Xrotation
			JOINT Neck1
			{
				OFFSET -0.054170 1.746240 0.172020 
				CHANNELS 3 Zrotation Yrotation Xrotation
				JOINT Head
				{
					OFFSET 0.104070 1.761360 -0.123970 
					CHANNELS 3 Zrotation Yrotation Xrotation
					End Site
					{
						OFFSET 0.000000 0.000000 0.000000 
					}
				}
			}
			JOINT LeftArm
			{
				OFFSET 3.362410 1.200890 -0.311210 
				CHANNELS 3 Zrotation Yrotation Xrotation
				JOINT LeftForeArm
				{
					OFFSET 4.983000 -0.000000 -0.000000 
					CHANNELS 3 Zrotation Yrotation Xrotation
					JOINT LeftHand
					{
						OFFSET 3.483560 -0.000000 -0.000000 
						CHANNELS 3 Zrotation Yrotation Xrotation
						JOINT LeftHandIndex1
						{
							OFFSET 0.715260 -0.000000 -0.000000 
							CHANNELS 3 Zrotation Yrotation Xrotation
							End Site
							{
								OFFSET 0.000000 0.000000 0.000000 
							}
						}
					}
				}
			}
			JOINT RightArm
			{
				OFFSET -3.136600 1.374050 -0.404650 
				CHANNELS 3 Zrotation Yrotation Xrotation
				JOINT RightForeArm
				{
					OFFSET -5.241900 -0.000000 -0.000000 
					CHANNELS 3 Zrotation Yrotation Xrotation
					JOINT RightHand
					{
						OFFSET -3.444170 -0.000000 -0.000000 
						CHANNELS 3 Zrotation Yrotation Xrotation
						JOINT RightHandIndex1
						{
							OFFSET -0.622530 -0.000000 -0.000000 
							CHANNELS 3 Zrotation Yrotation Xrotation
							End Site
							{
								OFFSET 0.000000 0.000000 0.000000 
							}
						}
					}
				}
			}
		}
	}
}
MOTION
Frames: 13
Frame Time: 0.041667
-6.304748 17.733754 6.821972 167.217333 70.557479 177.460684 -23.144148 -4.800420 -20.251025 0.346297 7.536221 23.909472 0.424324 -1.429933 -0.839051 0.427300 -4.195300 -11.626900 12.710312 0.137904 -26.386351 -9.370086 -16.949108 58.482427 1.972471 -13.345197 -13.812797 -0.679200 -5.269400 14.678400 -0.881753 5.237708 0.146604 1.426646 3.217867 0.120848 -3.334535 11.160544 31.927906 1.723300 3.493900 16.691100 -76.908322 3.759661 21.037773 13.988905 -26.060825 -3.784499 -0.124397 -1.495808 7.047631 -7.125000 0.000000 0.000000 75.878209 -5.156698 19.007983 -22.423613 30.445442 -7.292826 0.548843 -0.632850 20.397540 7.125000 0.000000 0.000000 
-6.261387 17.722513 6.784332 167.221269 70.214624 177.360055 -23.310155 -4.659580 -20.072126 0.373245 7.555905 24.028565 0.515993 -1.906454 -1.008631 0.412200 -4.121400 -11.418600 12.591225 0.392290 -27.111870 -9.667843 -17.129266 59.401544 1.682777 -11.598619 -12.044422 -0.446100 -4.285500 11.881200 -1.037779 5.241448 0.062472 1.239455 3.224890 -0.100246 -3.410683 10.791717 31.916599 1.542900 3.423300 16.599400 -76.321861 3.718762 22.443992 14.287420 -26.490696 -3.935652 -0.124016 -1.491961 7.126995 -7.125000 0.000000 0.000000 76.300650 -5.140744 18.613521 -22.340190 30.337791 -7.240307 0.546556 -0.637909 20.380649 7.125000 0.000000 0.000000 
-6.217925 17.712776 6.746491 167.499064 69.916422 177.507096 -23.330889 -4.732227 -19.836161 0.413140 7.603614 24.223991 0.557877 -2.092176 -1.309285 0.370900 -3.912000 -10.829100 12.614826 0.684248 -27.828811 -9.921841 -17.278653 60.184867 1.404593 -9.844014 -10.059328 -0.307400 -3.564400 9.854300 -1.072304 5.176124 0.056881 1.180136 3.190533 -0.189023 -3.520373 10.623405 31.880188 1.427000 3.385300 16.530800 -75.968132 3.469925 23.542640 14.579328 -26.890070 -4.085752 -0.117651 -1.482873 7.360085 -7.125000 0.000000 0.000000 76.510351 -5.064576 18.367133 -22.338208 30.324472 -7.237087 0.543657 -0.642011 20.444157 7.125000 0.000000 0.000000 
-6.172356 17.703642 6.706743 167.715788 69.702440 177.655175 -23.364464 -4.903646 -19.629357 0.460892 7.669146 24.466011 0.569346 -2.113626 -1.613783 0.342500 -3.760700 -10.404300 12.643270 0.956821 -28.619020 -10.130035 -17.407418 60.843784 1.122092 -8.110131 -8.311364 -0.183700 -2.760600 7.612900 -0.997463 4.953859 0.155571 1.277991 3.067096 -0.054009 -3.473339 10.775968 31.941961 1.521300 3.403400 16.598900 -75.962483 2.915826 24.131715 14.808979 -27.175094 -4.190217 -0.138728 -1.473845 7.627384 -7.125000 0.000000 0.000000 76.418061 -4.838917 18.482183 -22.417215 30.409539 -7.282923 0.525609 -0.643789 20.499791 7.125000 0.000000 0.000000 
-6.127288 17.693906 6.667999 167.658184 69.534390 177.552147 -23.498620 -4.989292 -19.458126 0.513515 7.741715 24.730126 0.587160 -2.169784 -1.914941 0.305100 -3.551100 -9.816900 12.609077 1.273150 -29.404886 -10.300377 -17.519653 61.399041 0.872692 -6.609198 -7.049348 -0.112000 -2.157800 5.942000 -0.847765 4.595665 0.311162 1.576447 2.870937 0.147686 -3.495742 11.191920 32.031755 1.660300 3.480000 16.749300 -76.236607 2.231670 24.087038 15.052270 -27.461778 -4.301225 -0.165089 -1.458524 8.053041 -7.125000 0.000000 0.000000 76.012087 -4.447093 19.103176 -22.480670 30.484249 -7.320319 0.509073 -0.644921 20.367160 7.125000 0.000000 0.000000 
-6.082722 17.685776 6.629556 167.824996 69.381712 177.642705 -23.554820 -5.044011 -19.302442 0.568738 7.820074 25.008764 0.609584 -2.236413 -2.236790 0.299300 -3.518000 -9.724300 12.672058 1.648124 -30.142111 -10.430506 -17.607027 61.834630 0.656675 -5.264675 -5.918017 -0.125100 -2.279800 6.279600 -0.797518 4.418606 0.405247 1.648430 2.771355 0.221107 -3.454888 11.291292 32.124518 1.725700 3.485600 16.862900 -76.178506 1.647939 24.521583 15.306556 -27.775376 -4.426582 -0.178994 -1.442778 8.461147 -7.125000 0.000000 0.000000 75.945830 -4.378353 19.346686 -22.694499 30.711961 -7.442484 0.507407 -0.638681 20.177105 7.125000 0.000000 0.000000 
-6.035447 17.677345 6.589307 168.139845 69.281296 177.907389 -23.541731 -5.159181 -19.173921 0.628604 7.909006 25.314977 0.622774 -2.225749 -2.649128 0.297700 -3.508300 -9.697200 12.792863 1.984893 -30.919974 -10.512725 -17.670454 62.128902 0.424822 -3.771849 -4.704217 -0.167200 -2.633900 7.261200 -0.858304 4.431312 0.330416 1.505291 2.777537 0.084132 -3.368598 11.031838 32.147712 1.682800 3.436400 16.774000 -75.796057 1.458019 25.477415 15.549854 -28.096876 -4.553765 -0.186123 -1.430127 8.852850 -7.125000 0.000000 0.000000 76.206466 -4.853298 19.235376 -23.005829 31.044298 -7.623937 0.510586 -0.633611 19.954174 7.125000 0.000000 0.000000 
-5.987368 17.663493 6.549960 168.181601 69.211345 177.924343 -23.638339 -5.229519 -19.058496 0.690014 7.997332 25.623106 0.638000 -2.233763 -3.032801 0.300700 -3.525700 -9.746000 12.898768 2.190581 -31.740707 -10.547307 -17.715391 62.275059 0.236259 -2.504707 -3.673398 -0.109700 -2.135800 5.881000 -0.944817 4.439791 0.270768 1.377000 2.781067 -0.009751 -3.310614 10.822649 32.198878 1.633400 3.404200 16.710500 -75.447799 1.227740 26.351266 15.752039 -28.357799 -4.655794 -0.201713 -1.418326 9.198500 -7.125000 0.000000 0.000000 76.391359 -4.997984 19.268560 -23.096402 31.135289 -7.674694 0.516908 -0.633361 19.745426 7.125000 0.000000 0.000000 
-5.940995 17.645627 6.514027 168.124687 69.181384 177.887474 -23.759830 -5.300874 -18.981795 0.748107 8.080996 25.912618 0.659956 -2.258088 -3.471322 0.263900 -3.304900 -9.128900 13.063609 2.413608 -32.608190 -10.539375 -17.742681 62.285446 0.115254 -1.648332 -2.914215 -0.036600 -1.234400 3.393900 -0.978698 4.374955 0.296162 1.384301 2.741736 0.033255 -3.295661 10.765052 32.249823 1.616200 3.393000 16.729400 -75.202645 0.726693 27.086075 15.955774 -28.604483 -4.753203 -0.221306 -1.407618 9.257443 -7.125000 0.000000 0.000000 76.426710 -4.832193 19.467348 -23.135082 31.166508 -7.692270 0.524281 -0.626546 19.688969 7.125000 0.000000 0.000000 
-5.894422 17.634585 6.478796 167.957093 69.190370 177.759822 -23.892707 -5.395214 -18.877955 0.803042 8.157570 26.181270 0.694106 -2.317994 -3.993475 0.191300 -2.816700 -7.768800 13.170403 2.719120 -33.435501 -10.494461 -17.753216 62.179019 0.002665 -0.892703 -2.589186 -0.007000 -0.538700 1.480400 -0.915234 4.206931 0.353417 1.581955 2.645493 0.136839 -3.261112 10.883149 32.279825 1.682000 3.413600 16.740900 -75.217081 0.208291 27.404936 16.216260 -28.915075 -4.882586 -0.232547 -1.397080 9.309424 -7.125000 0.000000 0.000000 76.197748 -4.753210 19.875519 -23.298080 31.341845 -7.786949 0.514952 -0.615155 19.681197 7.125000 0.000000 0.000000 
-5.847447 17.623043 6.441557 167.794273 69.219551 177.625582 -24.041074 -5.297344 -18.816689 0.848789 8.217889 26.397997 0.731951 -2.430019 -4.349689 0.171500 -2.667500 -7.354500 13.317732 2.983309 -34.234806 -10.412886 -17.745891 61.952394 -0.082086 -0.365781 -2.651267 -0.003700 0.392200 -1.077800 -0.827868 4.007501 0.472052 1.775067 2.529224 0.317207 -3.111386 11.070512 32.370036 1.851100 3.429100 16.854800 -75.376870 -0.493882 27.450097 16.443082 -29.168561 -4.993619 -0.243424 -1.384583 9.444741 -7.125000 0.000000 0.000000 75.825946 -4.498013 20.465520 -23.420952 31.479126 -7.860923 0.502623 -0.613585 19.554602 7.125000 0.000000 0.000000 
-5.802581 17.613005 6.402411 168.072222 69.247505 177.849623 -24.034189 -5.121191 -18.723420 0.885221 8.262584 26.566455 0.760966 -2.511282 -4.598252 0.188300 -2.794800 -7.708100 13.609890 3.241366 -34.942544 -10.288855 -17.711761 61.593999 -0.156244 0.107130 -2.687735 -0.016500 0.828100 -2.276000 -0.777832 3.911218 0.554739 1.780286 2.471104 0.362423 -2.975482 11.112932 32.440665 1.959300 3.416500 16.937200 -75.326881 -1.173939 27.800549 16.618180 -29.360115 -5.079501 -0.250108 -1.374673 9.551695 -7.125000 0.000000 0.000000 75.662100 -4.307074 20.791008 -23.516989 31.581754 -7.918913 0.499482 -0.618947 19.506688 7.125000 0.000000 0.000000 
-5.758115 17.613808 6.363567 168.619454 69.227415 178.247840 -23.909852 -5.041068 -18.500608 0.919143 8.299419 26.718908 0.781715 -2.535465 -4.876664 0.192700 -2.826700 -7.796800 13.948187 3.436075 -35.542183 -10.123032 -17.652346 61.101785 -0.219248 0.539337 -2.579729 -0.040300 1.295100 -3.561100 -0.730810 3.779193 0.597247 1.706754 2.401451 0.296224 -3.005671 11.185983 32.485315 1.956100 3.439900 16.961700 -75.273794 -1.719976 27.934355 16.789721 -29.548380 -5.164569 -0.255656 -1.367338 9.779686 -7.125000 0.000000 0.000000 75.563525 -4.319030 21.261821 -23.687312 31.757218 -8.016463 0.511939 -0.610046 19.321966 7.125000 0.000000 0.000000 
